# xmcd
#
# Track frame offsets: 
#        150
#        16125
#        31292
#        45665
#        61417
#        82517
#        99047
#        115060
#        133100
#        151980
#        168507
#        187750
#        206737
#        227060
#
# Disc length: 3208 seconds
#
# Revision: 1
# Processed by: cddbd v1.4PL0 Copyright (c) Steve Scherf et al.
# Submitted via: ExactAudioCopy v0.90b4
#
DISCID=9f0c860e
DTITLE=Reba McEntire - So Good Together (Australian Version)
DYEAR=1900
DGENRE=Country
TTITLE0=We're So Good Together
TTITLE1='Til I Said It To You
TTITLE2=I Like It That Way
TTITLE3=What Do You Say
TTITLE4=Roses
TTITLE5=I'm Not Your Girl
TTITLE6=She Wasn't Good Enough For Him
TTITLE7=Nobody Dies From A Broken Heart
TTITLE8=Back Before The War
TTITLE9=When You're Not Trying To
TTITLE10=Where You End And I Begin
TTITLE11=We're All Alone (Duet With Jose Y Durval)
TTITLE12=I'll Be (Bonus Track)
TTITLE13=If I Fell (Bonus Track)
EXTD=
EXTT0=
EXTT1=
EXTT2=
EXTT3=
EXTT4=
EXTT5=
EXTT6=
EXTT7=
EXTT8=
EXTT9=
EXTT10=
EXTT11=
EXTT12=
EXTT13=
PLAYORDER=
